#!OML:ASF E:\Style4\Style4.ASF
:FULLY-SPECIFIED
:DEGREES
3022
root -0.326549 18.1198 -1.68055 0.714628 0.867924 1.06198
lowerback 4.23512 1.72463 -0.139251
upperback 1.21905 2.29541 0.302467
thorax -1.1391 1.14652 0.269833
lowerneck -6.44877 -5.6173 -6.69492
upperneck 15.2266 -7.32875 3.33996
head 6.04518 -3.69738 1.60987
rclavicle -2.56681e-014 -3.18055e-015
rhumerus -46.6033 20.9627 -96.3549
rradius 80.2228
rwrist -26.3019
rhand -28.3689 30.7439
rfingers 7.12502
rthumb -1.74224 0.771283
lclavicle -2.56681e-014 -3.18055e-015
lhumerus -49.0728 -30.7138 101.707
lradius 91.9554
lwrist 20.5234
lhand -15.4808 26.6905
lfingers 7.12502
lthumb 10.701 56.398
rfemur -4.70709 3.3127 18.7277
rtibia 18.4997
rfoot -13.4305 -17.9942
rtoes -11.3743
lfemur -3.12439 -6.60219 -19.2347
ltibia 16.2779
lfoot -14.0431 11.5828
ltoes -16.5626
3023
root -0.326551 18.1206 -1.67699 0.693441 0.844559 1.15475
lowerback 4.21643 1.72358 -0.241301
upperback 1.21034 2.28956 0.28804
thorax -1.14096 1.14373 0.31283
lowerneck -6.43163 -5.61231 -6.69571
upperneck 15.2531 -7.31951 3.31328
head 6.04919 -3.69515 1.60261
rclavicle 3.50606e-014 -2.14687e-014
rhumerus -46.6477 21.0065 -96.3724
rradius 80.1976
rwrist -26.2822
rhand -28.3677 30.7426
rfingers 7.12502
rthumb -1.74105 0.769978
lclavicle 3.50606e-014 -2.14687e-014
lhumerus -49.09 -30.66 101.684
lradius 91.9847
lwrist 20.43
lhand -15.2909 26.8677
lfingers 7.12502
lthumb 10.8842 56.5656
rfemur -4.69616 3.21578 18.6235
rtibia 18.6093
rfoot -13.5291 -17.847
rtoes -10.9294
lfemur -3.0518 -6.6286 -19.3464
ltibia 16.2228
lfoot -14.0685 11.661
ltoes -16.8266
3024
root -0.326853 18.1215 -1.67596 0.656456 0.816476 1.18626
lowerback 4.23547 1.72573 -0.283146
upperback 1.21491 2.2907 0.29379
thorax -1.14879 1.14434 0.341497
lowerneck -6.42168 -5.61789 -6.68501
upperneck 15.2567 -7.32103 3.26166
head 6.04648 -3.69911 1.58478
rclavicle 6.53505e-015 1.82882e-014
rhumerus -46.6119 21.0493 -96.347
rradius 80.1382
rwrist -26.3184
rhand -28.3486 30.7023
rfingers 7.12502
rthumb -1.72261 0.729459
lclavicle 6.53505e-015 1.82882e-014
lhumerus -49.0332 -30.6025 101.654
lradius 91.9606
lwrist 20.4078
lhand -15.1578 26.8938
lfingers 7.12502
lthumb 11.0126 56.585
rfemur -4.63728 3.18489 18.5995
rtibia 18.6784
rfoot -13.6824 -17.6805
rtoes -9.81163
lfemur -2.98829 -6.66609 -19.3906
ltibia 16.1787
lfoot -14.0019 11.6913
ltoes -16.7001
3025
root -0.327606 18.1199 -1.67469 0.598316 0.813715 1.08906
lowerback 4.25668 1.73071 -0.158316
upperback 1.224 2.30279 0.309652
thorax -1.14715 1.15022 0.286839
lowerneck -6.36114 -5.64156 -6.67337
upperneck 15.2366 -7.35646 3.25076
head 6.0307 -3.7171 1.57854
rclavicle 1.799e-014 3.18055e-015
rhumerus -46.5373 21.0426 -96.3383
rradius 80.0422
rwrist -26.3547
rhand -28.3232 30.6834
rfingers 7.12502
rthumb -1.69803 0.710413
lclavicle 1.799e-014 3.18055e-015
lhumerus -49.0453 -30.6296 101.641
lradius 91.9319
lwrist 20.413
lhand -15.1736 26.8161
lfingers 7.12502
lthumb 10.9973 56.508
rfemur -4.5982 3.21418 18.7125
rtibia 18.7122
rfoot -13.696 -17.6839
rtoes -9.4377
lfemur -2.90351 -6.66392 -19.2866
ltibia 16.1428
lfoot -13.9528 11.6544
ltoes -16.6941
3026
root -0.329313 18.1181 -1.67173 0.579349 0.806946 1.08748
lowerback 4.22133 1.73962 -0.169917
upperback 1.23689 2.3143 0.319304
thorax -1.11514 1.15597 0.304042
lowerneck -6.40525 -5.64908 -6.68039
upperneck 15.2945 -7.36276 3.24034
head 6.05684 -3.72088 1.57399
rclavicle 1.20265e-014 2.78299e-015
rhumerus -46.4881 21.0723 -96.3044
rradius 80.01
rwrist -26.364
rhand -28.341 30.6026
rfingers 7.12502
rthumb -1.71524 0.629769
lclavicle 1.20265e-014 2.78299e-015
lhumerus -49.0613 -30.6494 101.664
lradius 91.9245
lwrist 20.3808
lhand -15.2058 26.826
lfingers 7.12502
lthumb 10.9663 56.5196
rfemur -4.61668 3.22221 18.7136
rtibia 18.6943
rfoot -13.5508 -17.8213
rtoes -10.7138
lfemur -2.87157 -6.66418 -19.2794
ltibia 16.1514
lfoot -14.0454 11.5983
ltoes -16.2537
3027
root -0.329813 18.1163 -1.66839 0.545341 0.797628 1.11712
lowerback 4.19744 1.74784 -0.191602
upperback 1.25755 2.32423 0.312458
thorax -1.08127 1.16092 0.309864
lowerneck -6.42442 -5.64099 -6.68633
upperneck 15.3087 -7.35342 3.26122
head 6.06511 -3.715 1.58158
rclavicle -6.73383e-015 2.46493e-014
rhumerus -46.4969 21.0704 -96.2912
rradius 80.0323
rwrist -26.3379
rhand -28.3582 30.5999
rfingers 7.12502
rthumb -1.7319 0.627187
lclavicle -6.73383e-015 2.46493e-014
lhumerus -49.0501 -30.6496 101.673
lradius 91.9063
lwrist 20.3682
lhand -15.1942 26.8708
lfingers 7.12502
lthumb 10.9774 56.5638
rfemur -4.55576 3.24772 18.6798
rtibia 18.6338
rfoot -13.5009 -17.8703
rtoes -11.2177
lfemur -2.84507 -6.65178 -19.3175
ltibia 16.2048
lfoot -14.0961 11.6094
ltoes -16.2466
